<svg width="200" height="52" viewBox="0 0 200 52" fill="none" xmlns="http://www.w3.org/2000/svg">
<path d="M197.706 0.0683596C198.075 0.0682139 198.439 0.156616 198.766 0.326045C199.093 0.495474 199.374 0.740916 199.586 1.04149C199.797 1.34207 199.932 1.68888 199.979 2.05244C200.027 2.41599 199.985 2.78552 199.858 3.12959L196.498 12.2336C196.336 12.671 196.043 13.0485 195.658 13.3151C195.274 13.5817 194.816 13.7246 194.347 13.7244H129.498V0.0683596H197.706ZM129.493 18.9592V32.6153H176.01C176.479 32.6155 176.937 32.4726 177.322 32.206C177.707 31.9394 178 31.5619 178.162 31.1245L181.521 22.0205C181.648 21.6764 181.69 21.3069 181.643 20.9433C181.596 20.5798 181.46 20.233 181.249 19.9324C181.038 19.6318 180.757 19.3864 180.429 19.2169C180.102 19.0475 179.738 18.9591 179.369 18.9592H129.493ZM129.493 37.8501V51.5062H157.678C158.147 51.5064 158.605 51.3635 158.99 51.0969C159.375 50.8303 159.668 50.4528 159.83 50.0154L163.189 40.9114C163.317 40.5673 163.358 40.1978 163.311 39.8342C163.264 39.4707 163.129 39.1238 162.917 38.8233C162.706 38.5227 162.425 38.2772 162.098 38.1078C161.77 37.9384 161.407 37.85 161.038 37.8501H129.493Z" fill="url(#paint0_linear_831_2563)"/>
<path d="M8.76226 16.5283H18.4552V22.9466H0.352539V0.482422H17.809V6.90077H8.76226V8.49398H17.1628V14.9123H8.76226V16.5283Z" fill="#00294B"/>
<path d="M40.7496 0.482422V7.86352H34.6015V22.9466H26.2102V7.86352H20.0713V0.482422H40.7496Z" fill="#00294B"/>
<path d="M51.7345 8.19354H56.9041V0.482422H65.3069V22.9466H56.9041V15.2492H51.7345V22.9512H43.334V0.482422H51.7345V8.19354Z" fill="#00294B"/>
<path d="M77.5822 22.9466H69.1816V0.482422H77.5822V22.9466Z" fill="#00294B"/>
<path d="M92.7684 0C98.9073 0 101.815 3.53009 101.815 3.53009L97.938 9.62752C97.938 9.62752 95.9994 7.86361 93.7377 7.86361C91.4761 7.86361 89.8606 9.4682 89.8606 11.7146C89.8606 13.961 91.4761 15.5656 93.7377 15.5656C95.9994 15.5656 97.938 13.7994 97.938 13.7994L101.815 19.8969C101.815 19.8969 98.9073 23.4292 92.7684 23.4292C85.9834 23.4292 80.8115 18.2923 80.8115 11.7146C80.8115 5.13695 85.9834 0 92.7684 0Z" fill="#00294B"/>
<path d="M112.638 15.8865C112.638 14.2933 103.914 14.2933 103.914 7.22178C103.914 3.53009 107.471 0 113.124 0C118.939 0 121.847 3.53009 121.847 3.53009L118.777 8.34385C118.777 8.34385 116.838 6.57994 114.576 6.57994C113.77 6.57994 113.284 7.06018 113.284 7.5427C113.284 9.1359 122.008 9.1359 122.008 16.2075C122.008 19.8969 118.454 23.4292 112.801 23.4292C105.697 23.4292 102.782 19.576 102.782 19.576L105.853 14.7622C105.853 14.7622 108.114 16.8493 111.352 16.8493C112.154 16.8425 112.638 16.3668 112.638 15.8865Z" fill="#00294B"/>
<path d="M14.1476 43.8022V39.7873H22.2273V47.9809C22.2273 47.9809 19.1957 51.9981 12.4588 51.9981C5.38955 52.0004 0 46.6449 0 39.7873C0 32.9297 5.38955 27.5742 12.4633 27.5742C18.8634 27.5742 21.8951 31.2545 21.8951 31.2545L17.8529 37.6114C17.8529 37.6114 15.8318 35.7724 13.4739 35.7724C11.1159 35.7724 9.43171 37.4453 9.43171 39.7873C9.43171 42.1293 11.1159 43.8022 13.4739 43.8022H14.1476Z" fill="#00294B"/>
<path d="M38.7376 51.4969L34.6955 43.8017H34.3586V51.4969H25.6006V28.0768C25.6006 28.0768 30.3164 27.7422 35.3692 27.7422C42.7798 27.7422 46.1391 31.0879 46.1391 35.9358C46.1391 40.7837 43.1075 42.4611 43.1075 42.4611L48.8362 51.4946L38.7376 51.4969ZM35.3692 37.7817C36.547 37.7817 37.3902 36.9441 37.3902 35.9404C37.3902 34.9367 36.547 34.1014 35.3692 34.1014H34.3586V37.7817H35.3692Z" fill="#00294B"/>
<path d="M73.7694 51.4963H64.0008L63.3271 48.1506H58.9481L58.2744 51.4963H48.5059L55.4101 28.0762H66.8675C66.8972 28.2218 73.7694 51.4963 73.7694 51.4963ZM62.328 42.7883L61.1479 36.766L59.9587 42.7883H62.328Z" fill="#00294B"/>
<path d="M86.2324 51.8315C80.8428 51.8315 76.127 51.4969 76.127 51.4969V28.0768C76.127 28.0768 80.8428 27.7422 86.2324 27.7422C95.192 27.7422 99.7062 32.5924 99.7062 39.7868C99.7062 46.9813 95.192 51.8315 86.2324 51.8315ZM86.2324 44.4709C88.753 44.4709 90.2745 42.9641 90.2745 39.7868C90.2745 36.6095 88.7576 35.1028 86.2324 35.1028H84.885V44.4709H86.2324Z" fill="#00294B"/>
<path d="M111.824 44.8048H121.93V51.4963H103.073V28.0762H121.265V34.7676H111.824V36.4405H120.582V43.132H111.824V44.8048Z" fill="#00294B"/>
<defs>
<linearGradient id="paint0_linear_831_2563" x1="164.748" y1="51.5062" x2="164.748" y2="0.0683594" gradientUnits="userSpaceOnUse">
<stop stop-color="#0077FF"/>
<stop offset="0.15" stop-color="#0090F8"/>
<stop offset="0.4" stop-color="#00B6ED"/>
<stop offset="0.63" stop-color="#00D1E5"/>
<stop offset="0.84" stop-color="#00E1E0"/>
<stop offset="1" stop-color="#00E7DE"/>
</linearGradient>
</defs>
</svg>
