<svg width="115" height="31" viewBox="0 0 115 31" fill="none" xmlns="http://www.w3.org/2000/svg">
<path d="M113.681 0.0390626C113.893 0.0389758 114.103 0.0916768 114.291 0.192683C114.479 0.293688 114.641 0.44001 114.762 0.6192C114.884 0.798389 114.961 1.00515 114.988 1.22188C115.016 1.43861 114.992 1.65891 114.918 1.86403L112.987 7.29144C112.894 7.55219 112.725 7.77724 112.504 7.93618C112.283 8.09512 112.019 8.18029 111.75 8.18018H74.4616V0.0390626H113.681ZM74.459 11.3009V19.442H101.206C101.476 19.4422 101.739 19.357 101.961 19.1981C102.182 19.0391 102.35 18.8141 102.443 18.5533L104.375 13.1259C104.448 12.9208 104.472 12.7005 104.445 12.4838C104.418 12.267 104.34 12.0603 104.219 11.8811C104.097 11.7019 103.936 11.5556 103.747 11.4546C103.559 11.3536 103.35 11.3008 103.138 11.3009H74.459ZM74.459 22.5628V30.7039H90.6654C90.9352 30.704 91.1985 30.6189 91.4198 30.4599C91.641 30.301 91.8096 30.0759 91.9027 29.8152L93.8343 24.3878C93.9075 24.1827 93.9315 23.9624 93.9043 23.7456C93.8771 23.5289 93.7994 23.3221 93.6779 23.1429C93.5565 22.9638 93.3947 22.8174 93.2066 22.7164C93.0184 22.6154 92.8093 22.5627 92.597 22.5628H74.459Z" fill="url(#paint0_linear_3049_2704)"/>
<path d="M5.03871 9.85487H10.6122V13.6812H0.203125V0.289062H10.2406V4.11539H5.03871V5.06518H9.86903V8.89151H5.03871V9.85487Z" fill="white"/>
<path d="M23.431 0.289062V4.68933H19.8959V13.6812H15.0709V4.68933H11.541V0.289062H23.431Z" fill="white"/>
<path d="M29.7473 4.88608H32.7198V0.289062H37.5514V13.6812H32.7198V9.09232H29.7473V13.6839H24.917V0.289062H29.7473V4.88608Z" fill="white"/>
<path d="M44.6096 13.6812H39.7793V0.289062H44.6096V13.6812Z" fill="white"/>
<path d="M53.342 0C56.8719 0 58.5439 2.10448 58.5439 2.10448L56.3145 5.73948C56.3145 5.73948 55.1998 4.68792 53.8994 4.68792C52.5989 4.68792 51.67 5.6445 51.67 6.98372C51.67 8.32293 52.5989 9.27951 53.8994 9.27951C55.1998 9.27951 56.3145 8.22659 56.3145 8.22659L58.5439 11.8616C58.5439 11.8616 56.8719 13.9674 53.342 13.9674C49.4406 13.9674 46.4668 10.905 46.4668 6.98372C46.4668 3.06242 49.4406 0 53.342 0Z" fill="white"/>
<path d="M64.7666 9.47083C64.7666 8.52103 59.7505 8.52103 59.7505 4.30529C59.7505 2.10448 61.7954 0 65.0459 0C68.39 0 70.062 2.10448 70.062 2.10448L68.2965 4.97422C68.2965 4.97422 67.1818 3.92266 65.8813 3.92266C65.4175 3.92266 65.1382 4.20895 65.1382 4.49661C65.1382 5.4464 70.1543 5.4464 70.1543 9.66214C70.1543 11.8616 68.1107 13.9674 64.8602 13.9674C60.7756 13.9674 59.0996 11.6703 59.0996 11.6703L60.8652 8.80054C60.8652 8.80054 62.1657 10.0448 64.0274 10.0448C64.4886 10.0407 64.7666 9.75712 64.7666 9.47083Z" fill="white"/>
<path d="M8.13485 26.1119V23.7184H12.7807V28.603C12.7807 28.603 11.0375 30.9979 7.16378 30.9979C3.09899 30.9992 0 27.8066 0 23.7184C0 19.6302 3.09899 16.4375 7.16642 16.4375C10.8465 16.4375 12.5897 18.6315 12.5897 18.6315L10.2654 22.4212C10.2654 22.4212 9.10329 21.3249 7.74748 21.3249C6.39167 21.3249 5.42324 22.3222 5.42324 23.7184C5.42324 25.1146 6.39167 26.1119 7.74748 26.1119H8.13485Z" fill="white"/>
<path d="M22.2735 30.7005L19.9493 26.113H19.7556V30.7005H14.7197V16.7385C14.7197 16.7385 17.4313 16.5391 20.3366 16.5391C24.5978 16.5391 26.5294 18.5336 26.5294 21.4237C26.5294 24.3138 24.7862 25.3138 24.7862 25.3138L28.0802 30.6992L22.2735 30.7005ZM20.3366 22.5241C21.0139 22.5241 21.4988 22.0248 21.4988 21.4264C21.4988 20.8281 21.0139 20.3301 20.3366 20.3301H19.7556V22.5241H20.3366Z" fill="white"/>
<path d="M42.4171 30.7003H36.8002L36.4129 28.7057H33.8949L33.5075 30.7003H27.8906L31.8605 16.7383H38.4485C38.4657 16.8251 42.4171 30.7003 42.4171 30.7003ZM35.8384 25.509L35.1598 21.9187L34.476 25.509H35.8384Z" fill="white"/>
<path d="M49.584 30.9C46.4851 30.9 43.7734 30.7005 43.7734 30.7005V16.7385C43.7734 16.7385 46.4851 16.5391 49.584 16.5391C54.7359 16.5391 57.3315 19.4305 57.3315 23.7195C57.3315 28.0085 54.7359 30.9 49.584 30.9ZM49.584 26.5119C51.0334 26.5119 51.9083 25.6137 51.9083 23.7195C51.9083 21.8254 51.036 20.9271 49.584 20.9271H48.8093V26.5119H49.584Z" fill="white"/>
<path d="M64.2985 26.7111H70.1091V30.7003H59.2666V16.7383H69.727V20.7274H64.2985V21.7247H69.3344V25.7139H64.2985V26.7111Z" fill="white"/>
<defs>
<linearGradient id="paint0_linear_3049_2704" x1="94.7302" y1="30.7039" x2="94.7302" y2="0.0390625" gradientUnits="userSpaceOnUse">
<stop stop-color="#C4C4C4"/>
<stop offset="1" stop-color="white"/>
</linearGradient>
</defs>
</svg>
